<?xml version="1.0" encoding="utf-8"?>
<!-- Generator: Adobe Illustrator 25.2.1, SVG Export Plug-In . SVG Version: 6.00 Build 0)  -->
<svg version="1.1" id="Livello_1" xmlns="http://www.w3.org/2000/svg" xmlns:xlink="http://www.w3.org/1999/xlink" x="0px" y="0px"
	 viewBox="0 0 595.3 595.3" style="enable-background:new 0 0 595.3 595.3;" xml:space="preserve">
<style type="text/css">
	.st0{fill:none;}
</style>
<path class="st0" d="M0,0h595.3v595.3H0V0z"/>
<path d="M201.9,528.6l11.5-26l8.9-27.7l8.2-34.3l3-30.6l-1.3-23.1l-3.3-16.8l-4.6-21.1l-11.5-28.3l-13.2-20.1l-18.8-21.4l-22.1-17.1
	l-22.3-11.9c-0.3,0.9-0.7,1.9-1.1,2.8L74.7,387.8l-4.3,9.4c-0.5,1.2-0.9,2.3-1.3,3.5c-0.2,0.7-0.5,1.4-0.7,2.1v0.1
	c-3.8,13.4-0.2,28.1,9.7,38.2l102.1,105l1.4,1.5l0.1,0.1c2,2.1,4.3,4,6.7,5.6L201.9,528.6L201.9,528.6z"/>
<path d="M164,253.1l25.5,20.2l21.5,24.3l16.7,28l10.5,27.7l37.3-7l28.5-1.3l-13.6-41.3l-7.5-53.4l0.9-41.4l11-43.5l20.6-43
	l17.1-32.1l7-28.5V27.4V8.7c-3-2.4-6.2-4.3-9.7-5.7c-0.2-0.1-0.3-0.1-0.5-0.2c-13.5-5.4-29.6-3-41.2,7.4L166,120.4
	c-7,6.2-11.4,14.4-12.8,23.6c-0.3,2.1-0.6,4.3-1,6.6l-13.1,87L164,253.1z"/>
<path d="M524.1,363.4L524.1,363.4c-12.8-17-37.2-51.4-50.6-83.1c-13.7-32.8-15.7-83.7-15.8-108.4c0-9.4-3-18.6-8.8-26L347.8,17.3
	l4,17.2v21.1L346.4,76l-8.2,26.7L327,125.4l-10.9,21.4l-10.9,28.3l-5.9,27.7l-1.7,23.1V249l1.7,20.8l4.3,20.4l2.1,16.6l9.2,28.7
	l4.1,10.8l25.2,4.2l34.9,12.8l31,18.4l26,27.3l15.5,26l21.1,34.1c0.3-0.4,0.6-0.9,0.8-1.3c9.1-13.5,17.9-27,26.6-40.7
	c2.2-3.4,4.3-6.9,6.5-10.3c4.3-6.9,8.5-13.8,12.7-20.7c2.1-3.5,4.2-6.9,6.3-10.4C529.8,378.7,529.2,369.8,524.1,363.4z"/>
<path d="M465.7,480.5L465.7,480.5l-11.5-18.1l-13.8-24L424.9,414l-22.7-22.7l-20.4-13.5L361,366.1l-27.6-6.5l-25-3l-27,1.3
	l-25.4,3.6l-16,3.2l3.4,29.8l-2,51.7l-12.2,45.5l-16.1,39.9l-16.2,25.8c3.4,1.2,6.9,2,10.5,2.2l9.5,0.7c5.1,0.4,12,0.9,20.1,1.6
	l30.6,2.4c39.2,3,82.8,19.2,120.5,29.5v0.1c5.5,1.5,10.9,1.7,16.2,1c20.2-2.7,37.6-20.5,40.4-42.1v-0.1c0.2-2.1,0.5-4.1,0.8-6.2
	c1.2-7.9,2.9-16.2,5-24.5c3.8-14.4,9.1-28.3,15.8-41.7L465.7,480.5z"/>
</svg>
