<svg version="1.1" id="Layer_1" xmlns="http://www.w3.org/2000/svg" xmlns:xlink="http://www.w3.org/1999/xlink" x="0" y="0" viewBox="0 0 595.3 595.3" xml:space="preserve"><style/><defs><path id="SVGID_1_" d="M0 0h595.3v595.3H0z"/></defs><clipPath id="SVGID_00000182529268362978796120000010635606483618509459_"><use xlink:href="#SVGID_1_" overflow="visible"/></clipPath><g clip-path="url(#SVGID_00000182529268362978796120000010635606483618509459_)"><path d="M444.2 552.8c-3.6 27.2-30.2 48.4-56.6 41-37.7-10.3-81.3-26.5-120.5-29.5l-60.1-4.7c-9.7-.7-18.8-4.9-25.6-11.9L78 441.1c-11.4-11.6-14.4-29-7.8-43.8 0 0 63.9-140.7 66.4-148 2.3-7.3 11.2-71.2 16.3-105.3 1.4-9.2 5.8-17.4 12.8-23.6L288.1 10.2c16.3-14.6 41.4-13.3 56 3 .6.6 1.1 1.3 1.7 2l102.8 130.7c5.7 7.5 8.8 16.6 8.8 26 0 24.8 2.1 75.6 15.8 108.4 13.4 31.7 37.8 66.3 50.6 83.1 5 6.4 5.6 15.3 1.5 22.3-16.6 27.8-34 55.2-52.1 82.1-17.4 25.9-25.5 58-29.1 85h.1z" fill="#6c31e3"/><radialGradient id="SVGID_00000036248161483616399230000007114145868414144909_" cx="-123.54" cy="595.08" r="1" gradientTransform="matrix(-33.7168 -219.7404 -146.4936 22.0903 83094.398 -39804.934)" gradientUnits="userSpaceOnUse"><stop offset="0" stop-color="#fff" stop-opacity=".4"/><stop offset="1" stop-opacity=".1"/></radialGradient><path d="M192.7 555.9c48.1-97.7 46.7-167.7 26.3-217.4-18.8-46-53.8-75-81.4-93-.7 2.7-1.5 5.1-2.6 7.6L70.2 397.4c-6.7 14.8-3.6 32.2 7.7 43.8l103.6 106.6c3.2 3.3 7 6.1 11.2 8.1z" fill="url(#SVGID_00000036248161483616399230000007114145868414144909_)"/><radialGradient id="SVGID_00000099643964756649568190000010581955331454734979_" cx="-123.54" cy="595.08" r="1" gradientTransform="matrix(58.1324 -440.6434 -325.5413 -43.018 201510.64 -28403.957)" gradientUnits="userSpaceOnUse"><stop offset="0" stop-color="#fff" stop-opacity=".6"/><stop offset="1" stop-color="#fff" stop-opacity=".1"/></radialGradient><path d="M323.4 357.7c13 1.4 25.8 4.2 38.1 8.8 39.5 14.8 75.6 47.9 105.2 112 2.1-3.6 4.2-7.2 6.5-10.7 18.1-26.9 35.5-54.3 52.1-82.1 4.2-7 3.6-15.9-1.5-22.3-12.8-17-37.2-51.4-50.6-83.1-13.7-32.8-15.7-83.7-15.8-108.4 0-9.4-3-18.6-8.8-26L345.8 15.2c-.6-.7-1.1-1.3-1.7-2 6.8 20.3 7.6 42.1 2.3 62.8-5 16.7-11.8 32.8-20.5 48l-8.4 16.5C304.1 166 296.4 194.2 295 223c-1.4 34.2 5.5 77.2 28.4 134.7z" fill="url(#SVGID_00000099643964756649568190000010581955331454734979_)"/><radialGradient id="SVGID_00000041274891690320747800000000845781609968789906_" cx="-123.54" cy="595.08" r="1" gradientTransform="matrix(-65.1083 -334.8425 -173.2345 33.7168 95388.594 -61021.598)" gradientUnits="userSpaceOnUse"><stop offset="0" stop-color="#fff" stop-opacity=".8"/><stop offset="1" stop-color="#fff" stop-opacity=".4"/></radialGradient><path d="M323.4 357.7c-22.9-57.4-30-100.5-28.5-134.8 1.4-28.8 9.1-57 22.6-82.5 2.7-5.6 5.6-11 8.4-16.4 8.3-16.2 16.3-31.4 20.5-48.1 5.3-20.7 4.4-42.5-2.3-62.8-14.7-16.2-39.7-17.4-55.9-2.8L165.6 120.5c-6.8 6.2-11.3 14.5-12.7 23.6L138 242.9l-.6 2.7c27.7 18 62.8 47 81.5 93 3.9 9.3 6.9 19 9.1 28.8 32.6-7.9 64.8-12.8 95.5-9.6v-.1z" fill="url(#SVGID_00000041274891690320747800000000845781609968789906_)"/><radialGradient id="SVGID_00000030460546282011828340000009619851880347650200_" cx="-123.54" cy="595.08" r="1" gradientTransform="matrix(-89.5239 -182.5357 -209.2766 103.4756 113793.14 -83553.43)" gradientUnits="userSpaceOnUse"><stop offset="0" stop-color="#fff" stop-opacity=".3"/><stop offset="1" stop-opacity=".3"/></radialGradient><path d="M387.6 593.9c26.4 7.2 53-14 56.6-41.2 3-25.9 10.6-51.1 22.6-74.3-29.8-63.9-65.7-97.2-105.1-112-41.9-15.6-87.4-10.5-133.7.8 10.3 47 4.2 108.5-35.3 188.6 4.7 2.1 9.4 3.5 14.5 3.8 0 0 28.4 2.3 62.3 4.8 33.7 2.3 84.2 19.9 118.1 29.3v.2z" fill="url(#SVGID_00000030460546282011828340000009619851880347650200_)"/><radialGradient id="SVGID_00000046327555905875448790000014699621832629674403_" cx="-123.54" cy="595.08" r="1" gradientTransform="matrix(-41.8553 192.9995 130.2165 27.9035 -82299.867 7387.105)" gradientUnits="userSpaceOnUse"><stop offset="0" stop-color="#fff" stop-opacity="0"/><stop offset="1" stop-color="#fff" stop-opacity=".2"/></radialGradient><path d="M295.2 220.7c-1.5 33.9 2.8 73 25.7 130.3l-7.2-.6c-20.6-59.9-25-90.7-23.5-125.1 1.8-29.3 9.9-57.8 23.7-83.7 2.8-5.7 9.3-16.4 12.2-21.9 8.3-15.9 13.8-24.4 18.6-39.1 6.6-20.3 5.2-30.1 4.4-39.6 5.3 34.8-14.8 65.1-29.9 95.8-13.9 25.9-22.1 54.4-24.1 83.7v.2z" fill-rule="evenodd" clip-rule="evenodd" fill="url(#SVGID_00000046327555905875448790000014699621832629674403_)"/><radialGradient id="SVGID_00000072974542931745090390000017768623008217078178_" cx="-123.54" cy="595.08" r="1" gradientTransform="matrix(102.313 103.4756 220.903 -217.4151 -118686.477 142418.563)" gradientUnits="userSpaceOnUse"><stop offset="0" stop-color="#fff" stop-opacity=".2"/><stop offset="1" stop-color="#fff" stop-opacity=".4"/></radialGradient><path d="M225.7 340.9c2.8 6.3 5.3 11.4 7 19.2l-6.2 1.3c-2.4-9.1-4.4-15.6-7.9-23.3-20.7-48.8-53.8-73.9-81-92.4 32.8 17.7 66.5 45.3 88 95.2h.1z" fill-rule="evenodd" clip-rule="evenodd" fill="url(#SVGID_00000072974542931745090390000017768623008217078178_)"/><radialGradient id="SVGID_00000091723010321441765820000005710835028685600952_" cx="-123.54" cy="595.08" r="1" gradientTransform="matrix(10.4638 151.1442 320.8907 -23.253 -189413.266 32839.668)" gradientUnits="userSpaceOnUse"><stop offset="0" stop-color="#fff" stop-opacity=".2"/><stop offset="1" stop-color="#fff" stop-opacity=".3"/></radialGradient><path d="M233 366.2c11.4 53.5-1.4 121.1-39.1 187.1 31.5-65.3 46.7-128 34.1-186l5-1.1z" fill-rule="evenodd" clip-rule="evenodd" fill="url(#SVGID_00000091723010321441765820000005710835028685600952_)"/><radialGradient id="SVGID_00000150076401584707200320000018443349192841508786_" cx="-123.54" cy="595.08" r="1" gradientTransform="matrix(-230.2042 -120.9154 -380.1858 724.3295 198266.453 -445507.969)" gradientUnits="userSpaceOnUse"><stop offset="0" stop-color="#fff" stop-opacity=".2"/><stop offset=".5" stop-color="#fff" stop-opacity=".2"/><stop offset="1" stop-color="#fff" stop-opacity=".3"/></radialGradient><path d="M363.1 361.4c61.7 23.1 85.6 73.9 103.4 116.3-22.1-44.3-52.6-93.4-105.6-111.6-40.5-13.7-74.5-12.1-132.9 1.2l-1.3-5.8c61.9-14.2 94.2-15.8 136.4-.1z" fill-rule="evenodd" clip-rule="evenodd" fill="url(#SVGID_00000150076401584707200320000018443349192841508786_)"/></g></svg>